<svg id="credit" xmlns="http://www.w3.org/2000/svg" xmlns:xlink="http://www.w3.org/1999/xlink" viewBox="0 0 325.61 331.87"><defs><radialGradient id="Super_Soft_Black_Vignette" cx="650.64" cy="303.8" r="156.34" gradientUnits="userSpaceOnUse"><stop offset="0.57" stop-color="#130c0e"/><stop offset="0.8" stop-color="#130c0e"/><stop offset="1" stop-color="#130c0e"/></radialGradient><radialGradient id="Super_Soft_Black_Vignette-2" cx="617.2" cy="303.84" r="141.77" xlink:href="#Super_Soft_Black_Vignette"/></defs><g id="credit-white"><g id="coin"><ellipse cx="179.49" cy="165.93" rx="141.81" ry="161.62" style="fill:#fff"/><path d="M650.64,469.73c-80.57,0-146.12-74.44-146.12-165.93s65.55-165.93,146.12-165.93S796.76,212.3,796.76,303.8,731.21,469.73,650.64,469.73Zm0-323.23c-75.81,0-137.49,70.56-137.49,157.3s61.68,157.3,137.49,157.3,137.49-70.57,137.49-157.3S726.45,146.5,650.64,146.5Z" transform="translate(-471.15 -137.87)" style="fill:url(#Super_Soft_Black_Vignette)"/><ellipse cx="146.12" cy="165.93" rx="141.81" ry="161.62" style="fill:#fff"/><path d="M617.27,469.73c-80.57,0-146.12-74.44-146.12-165.93S536.7,137.87,617.27,137.87,763.4,212.3,763.4,303.8,697.84,469.73,617.27,469.73Zm0-323.23c-75.81,0-137.48,70.56-137.48,157.3s61.67,157.3,137.48,157.3,137.49-70.57,137.49-157.3S693.08,146.5,617.27,146.5Z" transform="translate(-471.15 -137.87)"/><ellipse cx="146.12" cy="165.93" rx="128.28" ry="146.2" style="fill:#fff"/><path d="M619.6,454.3a4.32,4.32,0,0,1-.09-8.64l2.76-.09a4.32,4.32,0,0,1,.39,8.63l-3,.09Zm-17.15-.95a5.25,5.25,0,0,1-.56,0c-1-.13-2-.27-2.95-.43a4.32,4.32,0,1,1,1.34-8.53c.9.14,1.81.28,2.73.4a4.31,4.31,0,0,1-.56,8.59Zm37.07-1.22a4.32,4.32,0,0,1-.84-8.55c.9-.18,1.8-.37,2.69-.58a4.32,4.32,0,0,1,1.9,8.43c-1,.21-1.93.42-2.91.61A4.07,4.07,0,0,1,639.52,452.13ZM582.88,449a4.21,4.21,0,0,1-1.3-.21c-1-.3-1.89-.61-2.83-.93a4.32,4.32,0,1,1,2.81-8.16c.87.3,1.74.58,2.62.86a4.32,4.32,0,0,1-1.3,8.44Zm75.88-2.5a4.32,4.32,0,0,1-1.57-8.34c.86-.34,1.71-.68,2.56-1a4.32,4.32,0,1,1,3.33,8l-2.76,1.11A4.28,4.28,0,0,1,658.76,446.51Zm-94.41-5.17a4.24,4.24,0,0,1-2-.48l-2.62-1.39a4.32,4.32,0,1,1,4.14-7.58c.81.44,1.62.88,2.44,1.3a4.32,4.32,0,0,1-2,8.15Zm112.41-3.65a4.32,4.32,0,0,1-2.22-8c.79-.48,1.58-1,2.36-1.46a4.32,4.32,0,1,1,4.6,7.31c-.84.53-1.68,1.05-2.53,1.55A4.25,4.25,0,0,1,676.76,437.69Zm-129.39-7a4.3,4.3,0,0,1-2.57-.85l-2.36-1.79a4.32,4.32,0,0,1,5.3-6.82c.73.57,1.46,1.12,2.2,1.67a4.32,4.32,0,0,1-2.57,7.79Zm145.73-4.67a4.32,4.32,0,0,1-2.77-7.63c.71-.6,1.42-1.2,2.11-1.81a4.32,4.32,0,1,1,5.69,6.5l-2.26,1.93A4.29,4.29,0,0,1,693.1,426.06Zm-160.86-8.48a4.28,4.28,0,0,1-3.07-1.28c-.69-.7-1.38-1.4-2.06-2.12a4.32,4.32,0,0,1,6.26-5.95c.64.68,1.28,1.34,1.94,2a4.31,4.31,0,0,1,0,6.1A4.27,4.27,0,0,1,532.24,417.58Zm175.25-5.53a4.27,4.27,0,0,1-2.86-1.08,4.32,4.32,0,0,1-.37-6.1c.62-.69,1.22-1.39,1.82-2.1a4.32,4.32,0,1,1,6.58,5.6c-.64.75-1.29,1.49-1.94,2.23A4.31,4.31,0,0,1,707.49,412.05Zm-188.3-9.7a4.32,4.32,0,0,1-3.47-1.75c-.58-.79-1.16-1.59-1.73-2.39a4.32,4.32,0,0,1,7-5c.53.76,1.08,1.51,1.63,2.26a4.32,4.32,0,0,1-3.47,6.88Zm200.51-6.21a4.31,4.31,0,0,1-3.59-6.7c.51-.77,1-1.55,1.51-2.33a4.32,4.32,0,0,1,7.29,4.62c-.53.84-1.06,1.66-1.61,2.48A4.31,4.31,0,0,1,719.7,396.14ZM508.39,385.45a4.32,4.32,0,0,1-3.79-2.24c-.47-.86-.94-1.73-1.39-2.6a4.32,4.32,0,1,1,7.65-4c.43.83.87,1.65,1.31,2.46a4.31,4.31,0,0,1-3.78,6.39Zm221.24-6.73a4.24,4.24,0,0,1-1.88-.44,4.32,4.32,0,0,1-2-5.77c.41-.83.8-1.67,1.19-2.51a4.32,4.32,0,0,1,7.84,3.61q-.62,1.35-1.26,2.67A4.33,4.33,0,0,1,729.63,378.72ZM499.92,367.26a4.31,4.31,0,0,1-4-2.75c-.36-.91-.7-1.83-1-2.76a4.32,4.32,0,0,1,8.1-3q.48,1.32,1,2.61a4.31,4.31,0,0,1-4,5.88Zm237.28-7.12a4.42,4.42,0,0,1-1.37-.23,4.32,4.32,0,0,1-2.73-5.46c.3-.88.58-1.76.86-2.65a4.32,4.32,0,1,1,8.24,2.58c-.29.94-.6,1.87-.91,2.8A4.31,4.31,0,0,1,737.2,360.14Zm-243.34-12a4.32,4.32,0,0,1-4.19-3.27c-.24-.95-.46-1.91-.69-2.86a4.32,4.32,0,0,1,8.42-1.95c.21.91.42,1.82.65,2.72A4.32,4.32,0,0,1,494.9,348,4.17,4.17,0,0,1,493.86,348.14Zm248.49-7.39a4.17,4.17,0,0,1-.85-.09,4.31,4.31,0,0,1-3.38-5.07c.18-.92.35-1.83.52-2.75a4.32,4.32,0,1,1,8.49,1.55c-.17,1-.36,1.92-.55,2.88A4.32,4.32,0,0,1,742.35,340.75ZM490.21,328.41a4.32,4.32,0,0,1-4.28-3.79c-.11-1-.23-1.95-.33-2.92a4.32,4.32,0,1,1,8.59-.9c.1.93.2,1.85.31,2.77a4.31,4.31,0,0,1-3.76,4.81A4.71,4.71,0,0,1,490.21,328.41Zm254.87-7.54h-.33a4.31,4.31,0,0,1-4-4.63c.07-.93.13-1.86.19-2.79a4.31,4.31,0,1,1,8.61.51c-.05,1-.12,2-.19,2.93A4.32,4.32,0,0,1,745.08,320.87ZM489,308.39a4.31,4.31,0,0,1-4.31-4.32v-.27c0-1,0-2,0-2.94a4.33,4.33,0,0,1,4.32-4.25h.07a4.32,4.32,0,0,1,4.24,4.39c0,.93,0,1.87,0,2.8v.27A4.31,4.31,0,0,1,489,308.39Zm256.4-7.58a4.31,4.31,0,0,1-4.3-4.13q-.06-1.4-.15-2.79a4.32,4.32,0,0,1,8.62-.52q.09,1.47.15,2.94a4.31,4.31,0,0,1-4.12,4.5Zm-255.2-12.72-.52,0a4.31,4.31,0,0,1-3.77-4.8c.12-1,.24-1.95.38-2.92a4.32,4.32,0,1,1,8.55,1.18c-.13.92-.25,1.84-.36,2.77A4.32,4.32,0,0,1,490.19,288.09Zm253.13-7.23a4.32,4.32,0,0,1-4.25-3.61c-.15-.92-.31-1.84-.48-2.75a4.32,4.32,0,1,1,8.49-1.56c.18,1,.35,1.93.51,2.9a4.32,4.32,0,0,1-3.56,5A4.25,4.25,0,0,1,743.32,280.86ZM493.8,268.36a4.12,4.12,0,0,1-1-.13A4.31,4.31,0,0,1,489.6,263c.24-1,.48-1.91.74-2.86a4.32,4.32,0,1,1,8.34,2.22c-.24.9-.47,1.8-.7,2.71A4.32,4.32,0,0,1,493.8,268.36Zm245-7.05a4.32,4.32,0,0,1-4.14-3.09c-.26-.89-.54-1.78-.82-2.67a4.32,4.32,0,0,1,8.24-2.6c.29.93.58,1.87.86,2.81a4.32,4.32,0,0,1-4.14,5.55Zm-239-12.08a4.23,4.23,0,0,1-1.55-.3,4.3,4.3,0,0,1-2.47-5.58c.35-.92.71-1.83,1.09-2.74a4.32,4.32,0,0,1,8,3.27c-.35.85-.69,1.72-1,2.58A4.32,4.32,0,0,1,499.82,249.23Zm232.11-6.75A4.31,4.31,0,0,1,728,239.9c-.38-.85-.76-1.7-1.15-2.54a4.32,4.32,0,0,1,7.83-3.63c.42.89.82,1.78,1.22,2.69a4.32,4.32,0,0,1-4,6.06ZM508.25,231a4.24,4.24,0,0,1-2.06-.53,4.3,4.3,0,0,1-1.72-5.85c.47-.87.95-1.72,1.43-2.58a4.32,4.32,0,1,1,7.5,4.28c-.46.81-.91,1.62-1.36,2.43A4.3,4.3,0,0,1,508.25,231Zm214.39-6.32a4.31,4.31,0,0,1-3.68-2.07c-.49-.79-1-1.58-1.48-2.36a4.32,4.32,0,0,1,7.28-4.64c.53.83,1,1.66,1.56,2.5a4.32,4.32,0,0,1-3.68,6.57ZM519,214.1a4.31,4.31,0,0,1-3.47-6.88c.59-.79,1.18-1.58,1.78-2.36a4.32,4.32,0,1,1,6.84,5.27c-.56.73-1.12,1.47-1.67,2.22A4.3,4.3,0,0,1,519,214.1Zm192-5.76a4.3,4.3,0,0,1-3.34-1.58c-.59-.72-1.18-1.43-1.79-2.14a4.32,4.32,0,0,1,6.57-5.61c.64.75,1.27,1.51,1.89,2.27a4.32,4.32,0,0,1-3.33,7.06Zm-179-9.5a4.31,4.31,0,0,1-3.07-7.35l2.1-2.08a4.32,4.32,0,1,1,6,6.19c-.66.65-1.32,1.3-2,2A4.34,4.34,0,0,1,532,198.84Zm165.19-5.06a4.32,4.32,0,0,1-2.9-1.12c-.68-.62-1.38-1.24-2.07-1.84a4.32,4.32,0,1,1,5.67-6.51c.74.64,1.48,1.3,2.21,2a4.32,4.32,0,0,1-2.91,7.51Zm-150.06-8.12a4.32,4.32,0,0,1-2.58-7.78c.79-.59,1.59-1.18,2.4-1.75a4.32,4.32,0,0,1,5,7c-.75.53-1.5,1.08-2.24,1.63A4.3,4.3,0,0,1,547.17,185.66Zm134.24-4.19a4.35,4.35,0,0,1-2.38-.71c-.76-.51-1.54-1-2.32-1.5A4.32,4.32,0,1,1,681.3,172c.83.52,1.66,1.05,2.49,1.6a4.32,4.32,0,0,1-2.38,7.92ZM564.16,175a4.31,4.31,0,0,1-2-8.14c.88-.46,1.76-.91,2.65-1.34a4.31,4.31,0,1,1,3.79,7.75c-.82.41-1.65.82-2.46,1.25A4.32,4.32,0,0,1,564.16,175Zm99.68-3.14a4.22,4.22,0,0,1-1.75-.38l-2.54-1.09a4.32,4.32,0,0,1,3.32-8q1.36.57,2.73,1.17a4.32,4.32,0,0,1-1.76,8.27Zm-81.18-4.55a4.32,4.32,0,0,1-1.31-8.43c.94-.3,1.88-.59,2.83-.87a4.32,4.32,0,1,1,2.42,8.29l-2.63.8A4.32,4.32,0,0,1,582.66,167.3Zm62.24-2a4.19,4.19,0,0,1-1-.13l-2.69-.64a4.31,4.31,0,1,1,1.88-8.42c1,.22,1.94.44,2.91.69a4.31,4.31,0,0,1-1.05,8.5Zm-42.7-2.4a4.32,4.32,0,0,1-.57-8.6c1-.13,2-.25,3-.35a4.31,4.31,0,1,1,.92,8.58c-.91.1-1.83.21-2.74.33A3.64,3.64,0,0,1,602.2,162.91Zm22.89-.73h-.3c-.92-.06-1.83-.12-2.75-.16a4.31,4.31,0,1,1,.37-8.62c1,0,2,.1,3,.17a4.32,4.32,0,0,1-.29,8.62Z" transform="translate(-471.15 -137.87)" style="fill:url(#Super_Soft_Black_Vignette-2)"/><g id="side-lines"><rect x="211.93" y="304.8" width="33.95" height="8.63"/><rect x="235.4" y="287.18" width="32.48" height="8.63"/><rect x="251.64" y="269.58" width="34.5" height="8.63"/><rect x="264.36" y="250.85" width="30.95" height="8.63"/><rect x="274.13" y="231.23" width="31.73" height="8.63"/><rect x="281.36" y="210.34" width="33.54" height="8.63"/><rect x="286.81" y="182.02" width="33.36" height="8.63"/><rect x="206.39" y="15.02" width="32.48" height="8.63"/><rect x="232.16" y="32.61" width="34.5" height="8.63"/><rect x="249.87" y="51.34" width="30.95" height="8.63"/><rect x="262.75" y="70.97" width="31.73" height="8.63"/><rect x="275.38" y="91.85" width="33.54" height="8.63"/><rect x="280.82" y="120.18" width="33.36" height="8.63"/><rect x="287.93" y="149.44" width="32.24" height="8.63"/></g></g><path id="claw" d="M628.33,263.49,591.25,270l0-9.85,37.08-6.54ZM693,207.74a3.93,3.93,0,0,0-4.66-4.11l-157.6,27.79a5.91,5.91,0,0,0-4.61,5.74l0,9.85c.07,13.59,10.5,22.79,23.3,20.53l32.45-5.72.08,14.77a3.93,3.93,0,0,0,4.66,4.11l18.54-3.27.17,32.57-40.31,55a5.55,5.55,0,0,0-.84,5.27l18.8,46a3.81,3.81,0,0,0,4.33,2.34,4.7,4.7,0,0,0,1.71-.64,5.84,5.84,0,0,0,2.57-6.86h0l-17.71-43.33,31.51-43,.44,85.65a3.93,3.93,0,0,0,4.66,4.11,5.93,5.93,0,0,0,4.61-5.75l-.44-85.64,31.9,31.83L629.37,404.4c-.94,2.7.23,5.36,2.62,6a3.59,3.59,0,0,0,.93.11,4.29,4.29,0,0,0,.79-.07,5.82,5.82,0,0,0,4.3-3.86L656.29,354a4.76,4.76,0,0,0-.88-5l-40.76-40.69-.17-32.57L633,272.52a5.91,5.91,0,0,0,4.61-5.74L637.56,252,670,246.29c12.81-2.26,23.13-15.11,23.06-28.71Zm-23,28.7L549.43,257.69c-7.68,1.36-13.94-4.16-14-12.32l0-4.92,148.34-26.16,0,4.93C683.83,227.38,677.63,235.09,670,236.44Z" transform="translate(-471.15 -137.87)"/></g></svg>
