<svg id="credit" xmlns="http://www.w3.org/2000/svg" viewBox="0 0 325.61 331.87"><g id="credit-black"><g id="coin"><ellipse cx="179.49" cy="165.93" rx="141.81" ry="161.62"/><path d="M653.06,466.75c-80.58,0-146.13-74.44-146.13-165.94s65.55-165.93,146.13-165.93,146.12,74.44,146.12,165.93S733.63,466.75,653.06,466.75Zm0-323.24c-75.82,0-137.49,70.57-137.49,157.3s61.67,157.3,137.49,157.3,137.48-70.56,137.48-157.3S728.87,143.51,653.06,143.51Z" transform="translate(-473.57 -134.88)" style="fill:#fff"/><ellipse cx="146.12" cy="165.93" rx="141.81" ry="161.62"/><path d="M619.69,466.75c-80.57,0-146.12-74.44-146.12-165.94s65.55-165.93,146.12-165.93,146.12,74.44,146.12,165.93S700.26,466.75,619.69,466.75Zm0-323.24c-75.81,0-137.49,70.57-137.49,157.3s61.68,157.3,137.49,157.3,137.49-70.56,137.49-157.3S695.5,143.51,619.69,143.51Z" transform="translate(-473.57 -134.88)" style="fill:#fff"/><ellipse cx="146.12" cy="165.93" rx="128.28" ry="146.2"/><path d="M622,451.31a4.32,4.32,0,0,1-.09-8.63q1.38,0,2.76-.09a4.31,4.31,0,1,1,.38,8.62c-1,.05-2,.08-3,.1Zm-17.15-.94a3.64,3.64,0,0,1-.57,0c-1-.13-2-.27-2.95-.42a4.32,4.32,0,0,1,1.34-8.53l2.73.39a4.32,4.32,0,0,1-.55,8.6Zm37.06-1.23a4.32,4.32,0,0,1-.84-8.55q1.36-.27,2.7-.57a4.32,4.32,0,1,1,1.9,8.42c-1,.22-1.94.43-2.91.62A4.08,4.08,0,0,1,641.93,449.14ZM585.3,446a4.25,4.25,0,0,1-1.31-.2c-.94-.3-1.89-.61-2.83-.94a4.32,4.32,0,0,1,2.81-8.16c.87.3,1.75.59,2.63.87a4.32,4.32,0,0,1-1.3,8.43Zm75.87-2.5a4.32,4.32,0,0,1-1.56-8.34c.85-.33,1.71-.68,2.55-1a4.32,4.32,0,1,1,3.33,8c-.91.38-1.83.75-2.75,1.11A4.32,4.32,0,0,1,661.17,443.52Zm-94.4-5.16a4.29,4.29,0,0,1-2-.49c-.87-.45-1.75-.91-2.61-1.39a4.31,4.31,0,1,1,4.14-7.57c.81.44,1.62.87,2.44,1.29a4.32,4.32,0,0,1-2,8.16Zm112.4-3.66a4.32,4.32,0,0,1-2.22-8c.8-.47,1.59-1,2.37-1.45a4.32,4.32,0,0,1,4.6,7.31c-.84.52-1.68,1-2.53,1.55A4.37,4.37,0,0,1,679.17,434.7Zm-129.39-7a4.3,4.3,0,0,1-2.56-.85c-.8-.59-1.58-1.18-2.36-1.79a4.31,4.31,0,1,1,5.3-6.81c.73.56,1.46,1.12,2.2,1.67a4.32,4.32,0,0,1-2.58,7.78Zm145.74-4.67a4.32,4.32,0,0,1-2.77-7.63c.71-.59,1.41-1.19,2.11-1.81a4.32,4.32,0,0,1,5.69,6.5c-.75.66-1.5,1.3-2.26,1.94A4.33,4.33,0,0,1,695.52,423.07ZM534.65,414.6a4.29,4.29,0,0,1-3.06-1.28c-.7-.7-1.38-1.41-2.06-2.12a4.32,4.32,0,1,1,6.26-5.95c.64.67,1.28,1.34,1.93,2a4.32,4.32,0,0,1-3.07,7.36Zm175.26-5.53a4.32,4.32,0,0,1-3.23-7.18c.61-.69,1.22-1.39,1.82-2.1a4.32,4.32,0,0,1,6.58,5.59c-.64.76-1.29,1.5-1.94,2.24A4.32,4.32,0,0,1,709.91,409.07Zm-188.3-9.7a4.31,4.31,0,0,1-3.47-1.75c-.59-.79-1.17-1.59-1.74-2.39a4.32,4.32,0,1,1,7-5c.54.75,1.09,1.51,1.64,2.25a4.33,4.33,0,0,1-3.47,6.89Zm200.51-6.21a4.25,4.25,0,0,1-2.38-.72,4.32,4.32,0,0,1-1.22-6c.52-.77,1-1.55,1.52-2.34a4.32,4.32,0,0,1,7.29,4.63c-.53.83-1.07,1.66-1.61,2.48A4.31,4.31,0,0,1,722.12,393.16ZM510.81,382.47a4.3,4.3,0,0,1-3.79-2.25c-.47-.86-.94-1.72-1.4-2.6a4.32,4.32,0,0,1,7.65-4c.43.82.87,1.64,1.32,2.45a4.33,4.33,0,0,1-3.78,6.4Zm221.24-6.74a4.31,4.31,0,0,1-3.88-6.2c.4-.83.8-1.67,1.19-2.52a4.32,4.32,0,0,1,7.84,3.62l-1.26,2.67A4.32,4.32,0,0,1,732.05,375.73ZM502.34,364.28a4.31,4.31,0,0,1-4-2.76c-.36-.91-.71-1.83-1-2.75a4.32,4.32,0,1,1,8.1-3c.32.87.65,1.74,1,2.61a4.33,4.33,0,0,1-4,5.88Zm237.28-7.13a4.31,4.31,0,0,1-4.1-5.68c.29-.88.58-1.77.86-2.66a4.32,4.32,0,0,1,8.24,2.59c-.3.94-.6,1.87-.91,2.8A4.31,4.31,0,0,1,739.62,357.15Zm-243.35-12a4.32,4.32,0,0,1-4.18-3.28c-.24-.95-.47-1.9-.69-2.86a4.32,4.32,0,1,1,8.41-1.94c.21.91.43,1.81.65,2.72a4.31,4.31,0,0,1-3.14,5.23A4.71,4.71,0,0,1,496.27,345.16Zm248.5-7.4a4.14,4.14,0,0,1-.85-.08,4.32,4.32,0,0,1-3.39-5.08c.18-.91.36-1.83.53-2.74a4.31,4.31,0,1,1,8.49,1.54c-.18,1-.36,1.93-.55,2.89A4.32,4.32,0,0,1,744.77,337.76ZM492.63,325.43a4.32,4.32,0,0,1-4.28-3.8c-.12-1-.23-1.94-.33-2.92a4.32,4.32,0,0,1,8.59-.9c.09.93.2,1.86.31,2.78a4.32,4.32,0,0,1-3.76,4.81Zm254.87-7.54h-.33a4.32,4.32,0,0,1-4-4.63q.1-1.39.18-2.79a4.32,4.32,0,1,1,8.62.5c-.06,1-.12,2-.19,2.94A4.33,4.33,0,0,1,747.5,317.89ZM491.41,305.41a4.33,4.33,0,0,1-4.32-4.32v-.28q0-1.47,0-2.94a4.31,4.31,0,0,1,4.31-4.24h.08a4.32,4.32,0,0,1,4.24,4.39c0,.93,0,1.86,0,2.79v.28A4.33,4.33,0,0,1,491.41,305.41Zm256.4-7.58a4.31,4.31,0,0,1-4.31-4.13c0-.93-.09-1.86-.14-2.79a4.32,4.32,0,1,1,8.62-.52c0,1,.11,1.95.15,2.94a4.33,4.33,0,0,1-4.13,4.5Zm-255.2-12.72a4.53,4.53,0,0,1-.52,0,4.32,4.32,0,0,1-3.77-4.81c.11-1,.24-1.94.37-2.91a4.32,4.32,0,0,1,8.56,1.17c-.13.92-.25,1.85-.36,2.78A4.32,4.32,0,0,1,492.61,285.11Zm253.13-7.23a4.32,4.32,0,0,1-4.25-3.62c-.15-.92-.31-1.83-.48-2.75A4.32,4.32,0,1,1,749.5,270c.18,1,.34,1.93.51,2.9a4.33,4.33,0,0,1-4.27,5ZM496.21,265.37a4.68,4.68,0,0,1-1-.12A4.33,4.33,0,0,1,492,260c.24-.95.48-1.91.73-2.85a4.32,4.32,0,0,1,8.35,2.22c-.24.9-.48,1.8-.7,2.7A4.32,4.32,0,0,1,496.21,265.37Zm245.05-7a4.33,4.33,0,0,1-4.14-3.09c-.27-.9-.54-1.79-.82-2.68a4.31,4.31,0,1,1,8.23-2.59c.3.93.59,1.87.87,2.81a4.33,4.33,0,0,1-2.91,5.37A4.41,4.41,0,0,1,741.26,258.33Zm-239-12.09a4.32,4.32,0,0,1-4-5.87c.36-.92.72-1.84,1.09-2.75a4.32,4.32,0,0,1,8,3.27c-.36.86-.7,1.72-1,2.59A4.32,4.32,0,0,1,502.24,246.24Zm232.11-6.75a4.31,4.31,0,0,1-4-2.57c-.38-.85-.76-1.7-1.15-2.54a4.32,4.32,0,0,1,7.83-3.64c.41.89.82,1.79,1.22,2.69a4.32,4.32,0,0,1-3.95,6.06ZM510.67,228a4.32,4.32,0,0,1-3.79-6.39c.47-.86.95-1.72,1.44-2.57a4.32,4.32,0,0,1,7.5,4.27c-.46.81-.91,1.62-1.36,2.44A4.3,4.3,0,0,1,510.67,228Zm214.39-6.33a4.33,4.33,0,0,1-3.69-2.06c-.48-.8-1-1.58-1.47-2.37a4.32,4.32,0,1,1,7.28-4.64c.53.83,1.05,1.67,1.56,2.5a4.33,4.33,0,0,1-1.43,5.94A4.28,4.28,0,0,1,725.06,221.71ZM521.44,211.12a4.31,4.31,0,0,1-3.47-6.88c.59-.8,1.18-1.58,1.78-2.36a4.31,4.31,0,0,1,6.84,5.26c-.56.73-1.12,1.48-1.67,2.22A4.32,4.32,0,0,1,521.44,211.12Zm192-5.77a4.3,4.3,0,0,1-3.34-1.58c-.59-.72-1.19-1.43-1.79-2.13a4.32,4.32,0,1,1,6.56-5.61c.64.75,1.28,1.5,1.9,2.27a4.32,4.32,0,0,1-3.33,7Zm-179-9.49a4.31,4.31,0,0,1-3.07-7.35c.69-.7,1.39-1.4,2.1-2.08a4.32,4.32,0,0,1,6,6.19c-.67.64-1.32,1.29-2,1.95A4.27,4.27,0,0,1,534.46,195.86Zm165.19-5.06a4.3,4.3,0,0,1-2.9-1.12c-.69-.63-1.38-1.24-2.08-1.85a4.32,4.32,0,1,1,5.68-6.51c.74.65,1.47,1.3,2.21,2a4.32,4.32,0,0,1-2.91,7.51Zm-150.06-8.13a4.32,4.32,0,0,1-2.58-7.78q1.18-.88,2.4-1.74a4.31,4.31,0,1,1,5,7c-.75.54-1.5,1.08-2.25,1.64A4.33,4.33,0,0,1,549.59,182.67Zm134.23-4.19a4.32,4.32,0,0,1-2.37-.71c-.77-.5-1.54-1-2.32-1.49a4.32,4.32,0,0,1,4.58-7.32c.84.53,1.67,1.06,2.49,1.6a4.32,4.32,0,0,1-2.38,7.92ZM566.58,172a4.32,4.32,0,0,1-2-8.15c.88-.46,1.76-.9,2.65-1.34a4.32,4.32,0,0,1,3.79,7.76c-.83.4-1.65.82-2.47,1.24A4.26,4.26,0,0,1,566.58,172Zm99.68-3.15a4.33,4.33,0,0,1-1.75-.37c-.84-.38-1.69-.74-2.54-1.09a4.32,4.32,0,1,1,3.32-8c.91.38,1.82.77,2.72,1.17a4.31,4.31,0,0,1-1.75,8.26Zm-81.19-4.55a4.32,4.32,0,0,1-1.3-8.43c.94-.3,1.88-.59,2.83-.86a4.32,4.32,0,0,1,2.42,8.29c-.88.25-1.76.52-2.64.8A4.21,4.21,0,0,1,585.07,164.31Zm62.25-2a4.71,4.71,0,0,1-1.05-.13c-.9-.23-1.79-.44-2.69-.64a4.32,4.32,0,1,1,1.88-8.43c1,.22,1.94.45,2.9.69a4.32,4.32,0,0,1-1,8.51Zm-42.71-2.4a4.32,4.32,0,0,1-.56-8.6c1-.13,2-.25,3-.36a4.32,4.32,0,1,1,.93,8.59c-.92.1-1.83.21-2.74.33A5.46,5.46,0,0,1,604.61,159.93Zm22.9-.74h-.3q-1.38-.09-2.76-.15a4.31,4.31,0,0,1,.38-8.62c1,0,2,.09,3,.16a4.32,4.32,0,0,1-.29,8.62Z" transform="translate(-473.57 -134.88)" style="fill:#fff"/><g id="side-lines"><rect x="211.93" y="304.8" width="33.95" height="8.63" style="fill:#fff"/><rect x="235.4" y="287.18" width="32.48" height="8.63" style="fill:#fff"/><rect x="251.64" y="269.58" width="34.5" height="8.63" style="fill:#fff"/><rect x="264.36" y="250.85" width="30.95" height="8.63" style="fill:#fff"/><rect x="274.13" y="231.23" width="31.73" height="8.63" style="fill:#fff"/><rect x="281.36" y="210.34" width="33.54" height="8.63" style="fill:#fff"/><rect x="286.81" y="182.02" width="33.36" height="8.63" style="fill:#fff"/><rect x="206.39" y="15.02" width="32.48" height="8.63" style="fill:#fff"/><rect x="232.16" y="32.61" width="34.5" height="8.63" style="fill:#fff"/><rect x="249.87" y="51.34" width="30.95" height="8.63" style="fill:#fff"/><rect x="262.75" y="70.97" width="31.73" height="8.63" style="fill:#fff"/><rect x="275.38" y="91.85" width="33.54" height="8.63" style="fill:#fff"/><rect x="280.82" y="120.18" width="33.36" height="8.63" style="fill:#fff"/><rect x="287.93" y="149.44" width="32.24" height="8.63" style="fill:#fff"/></g></g><path id="claw" d="M630.75,260.51l-37.08,6.54,0-9.85,37.08-6.54Zm64.66-55.75a3.93,3.93,0,0,0-4.66-4.11l-157.6,27.79a5.91,5.91,0,0,0-4.61,5.74l.05,9.85c.07,13.59,10.5,22.79,23.3,20.53l32.45-5.72.08,14.77a3.93,3.93,0,0,0,4.66,4.11l18.54-3.27.17,32.57-40.31,55a5.55,5.55,0,0,0-.84,5.27l18.8,46a3.81,3.81,0,0,0,4.33,2.34,4.7,4.7,0,0,0,1.71-.64,5.84,5.84,0,0,0,2.57-6.86h0l-17.71-43.33,31.51-43,.44,85.65a3.93,3.93,0,0,0,4.66,4.11,5.93,5.93,0,0,0,4.61-5.75l-.44-85.64L649,351.94l-17.23,49.48c-.94,2.7.23,5.36,2.62,5.95a3.59,3.59,0,0,0,.93.11,4.29,4.29,0,0,0,.79-.07,5.82,5.82,0,0,0,4.3-3.86L658.7,351a4.76,4.76,0,0,0-.88-5l-40.76-40.69-.17-32.57,18.54-3.27A5.91,5.91,0,0,0,640,263.8L640,249l32.44-5.72c12.81-2.26,23.13-15.11,23.06-28.71Zm-23,28.7L551.84,254.71c-7.68,1.36-13.94-4.16-14-12.32l0-4.92,148.34-26.16,0,4.93C686.24,224.4,680,232.11,672.36,233.46Z" transform="translate(-473.57 -134.88)" style="fill:#fff"/></g></svg>
